<!DOCTYPE svg PUBLIC "-//W3C//DTD SVG 1.1//EN" "http://www.w3.org/Graphics/SVG/1.1/DTD/svg11.dtd">
<!-- Uploaded to: SVG Repo, www.svgrepo.com, Transformed by: SVG Repo Mixer Tools -->
<svg width="800px" height="800px" viewBox="-2.4 -2.4 28.80 28.80" fill="none" xmlns="http://www.w3.org/2000/svg" stroke="#000000">
<g id="SVGRepo_bgCarrier" stroke-width="0" transform="translate(2.6400000000000006,2.6400000000000006), scale(0.78)">
<rect x="-2.4" y="-2.4" width="28.80" height="28.80" rx="14.4" fill="#4f5e63" strokewidth="0"/>
</g>
<g id="SVGRepo_tracerCarrier" stroke-linecap="round" stroke-linejoin="round" stroke="#CCCCCC" stroke-width="0.4800000000000001"/>
<g id="SVGRepo_iconCarrier"> <path d="M12 22C17.5228 22 22 17.5228 22 12C22 6.47715 17.5228 2 12 2C6.47715 2 2 6.47715 2 12C2 17.5228 6.47715 22 12 22Z" stroke="#ffffff" stroke-width="1.5"/> <path d="M15.5 9L15.6716 9.17157C17.0049 10.5049 17.6716 11.1716 17.6716 12C17.6716 12.8284 17.0049 13.4951 15.6716 14.8284L15.5 15" stroke="#ffffff" stroke-width="1.5" stroke-linecap="round"/> <path d="M13.2939 7.17041L11.9998 12L10.7058 16.8297" stroke="#ffffff" stroke-width="1.5" stroke-linecap="round"/> <path d="M8.50019 9L8.32861 9.17157C6.99528 10.5049 6.32861 11.1716 6.32861 12C6.32861 12.8284 6.99528 13.4951 8.32861 14.8284L8.50019 15" stroke="#ffffff" stroke-width="1.5" stroke-linecap="round"/> </g>
</svg>